<!--?xml version="1.0" encoding="utf-8"?-->
<!-- Generator: Adobe Illustrator 22.1.0, SVG Export Plug-In . SVG Version: 6.00 Build 0)  -->
<svg version="1.1" id="_x31_4" xmlns="http://www.w3.org/2000/svg" xmlns:xlink="http://www.w3.org/1999/xlink" x="0px" y="0px" viewBox="0 0 800 590.196" style="enable-background:new 0 0 800 590.196;" xml:space="preserve">
<style type="text/css">
	.st0{fill:#040000;}
</style>
<g>
	<path class="st0" d="M3.058,57.143C6.521,70.3,92.369,374.25,96.526,388.097c-2.077,3.465,5.537,14.544,13.847,16.619
		c-5.537,5.534,4.153,16.616,13.846,23.541c9.695,6.917,198.71,141.238,216.022,153.014c17.307,11.765,33.231,6.915,39.463,3.463
		c6.229-3.463,402.955-186.943,411.955-192.477c9.004-5.542,8.309-18.007-1.38-22.162c-9.694-4.154-229.864-85.16-236.103-87.933
		c-6.225-2.765-10.384-4.152-15.919-4.152c-5.534,0-9.973,2.74-15.582,4.984c3.366-6.729-3.365-17.94-3.365-17.94
		S454.48,32.914,448.936,15.603c-5.535-17.31-15.229-13.844-22.154-13.844c-6.921,0-390.496,22.846-406.417,25.613
		C4.443,30.142-0.404,43.989,3.058,57.143z M546.054,355.205l23.569,10.712l-35.725,12.405l-22.397-11.456L546.054,355.205z
		 M508.06,365.106l-21.106-10.801l33.238-10.851l22.169,10.077L508.06,365.106z M530.274,379.578l-39.517,13.716l-22.477-11.837
		l39.563-13.35L530.274,379.578z M464.895,379.678l-21.316-11.223l39.652-12.938l21.161,10.826L464.895,379.678z M461.271,380.904
		L426.027,392.8l-21.518-11.596l35.403-11.549L461.271,380.904z M422.429,394.008l-33.321,11.248l-21.298-12.072l33.065-10.786
		L422.429,394.008z M385.589,406.443L350.73,418.21l-21.27-12.506l34.789-11.36L385.589,406.443z M347.255,419.384l-32.509,10.978
		l-21.509-12.839l32.71-10.668L347.255,419.384z M290.081,415.644l-20.839-12.447l32.812-10.394l20.701,12.169L290.081,415.644z
		 M305.606,391.675l34.596-10.958l20.786,11.781l-34.715,11.328L305.606,391.675z M343.805,379.571l32.628-10.339l21.069,11.347
		l-32.95,10.754L343.805,379.571z M380.116,368.065l35.443-11.234l20.937,11.03l-35.356,11.531L380.116,368.065z M419.277,355.658
		l39.666-12.572l20.814,10.648l-39.592,12.924L419.277,355.658z M462.701,341.898l31.858-10.097l21.901,9.955l-32.99,10.767
		L462.701,341.898z M498.5,330.553l31.144-9.874l22.61,9.397l-31.898,10.404L498.5,330.553z M556.186,331.712l22.774,9.463
		l-32.762,11.059l-22.104-10.049L556.186,331.712z M582.842,342.789l24.308,10.101l-33.74,11.713l-23.524-10.693L582.842,342.789z
		 M630.337,420.865l-122.222,50.22l-53.178-34.522l115.202-40.056L630.337,420.865z M451.974,406.768l-22.61-12.176l35.293-11.914
		l22.527,11.864L451.974,406.768z M448.414,408.001l-33.779,11.73l-22.293-12.641l33.437-11.283L448.414,408.001z M411.155,420.94
		l-35.077,12.179l-22.189-13.05l34.931-11.787L411.155,420.94z M372.643,434.305l-32.426,11.263l-22.345-13.34l32.548-10.991
		L372.643,434.305z M336.804,446.755l-39.592,13.74l-22.106-13.832l39.314-13.271L336.804,446.755z M272.069,444.762l-21.342-13.36
		l39.019-12.74l21.543,12.861L272.069,444.762z M247.662,429.481l-20.622-12.909l38.674-12.251l20.872,12.457L247.662,429.481z
		 M223.949,414.646l-19.511-12.219l38.753-11.549l19.342,11.544L223.949,414.646z M246.796,389.807l33.29-9.921l18.758,11.03
		L266.063,401.3L246.796,389.807z M283.712,378.801l34.816-10.369l18.387,10.419l-34.522,10.94L283.712,378.801z M322.21,367.33
		l32.635-9.724l18.195,9.801l-32.529,10.3L322.21,367.33z M358.605,356.486l35.939-10.714l17.574,9.253l-35.4,11.213
		L358.605,356.486z M398.334,344.642l40.223-11.985l16.877,8.637l-39.607,12.551L398.334,344.642z M442.394,331.508l31.123-9.269
		l17.27,7.853l-31.596,10.012L442.394,331.508z M477.552,321.034l30.821-9.183l17.304,7.183l-30.945,9.803L477.552,321.034z
		 M558.693,308.578l-28.915,9.161l-17.2-7.141l28.796-8.582L558.693,308.578z M586.207,318.991l-29.912,9.767l-22.556-9.37
		l29.128-9.233L586.207,318.991z M613.752,329.433l-30.806,10.397l-22.72-9.439l30.111-9.831L613.752,329.433z M642.905,340.475
		l-31.818,11.05l-24.259-10.087l31-10.459L642.905,340.475z M126.744,410.131c0.831-1.291,2.547-1.65,3.829-0.821
		c2.008,1.305,200.942,130.253,220.042,141.163c14.589,8.345,14.597,8.347,23.479,5.349c2.33-0.779,5.227-1.754,9.002-2.837
		c18.959-5.418,386.382-175.379,390.09-177.097c1.39-0.643,3.038-0.035,3.683,1.35c0.636,1.392,0.035,3.038-1.355,3.676
		c-15.17,7.019-371.528,171.863-390.9,177.397c-3.646,1.048-6.478,1.999-8.749,2.76c-4.088,1.38-6.776,2.202-9.415,2.202
		c-4.35,0-8.545-2.249-18.587-7.989c-19.233-10.987-212.105-136.001-220.306-141.323
		C126.274,413.132,125.91,411.412,126.744,410.131z M24.75,55.302L436.476,21.14l67.857,243.715L111.065,364.56L24.75,55.302z"></path>
</g>
</svg>
