<!--?xml version="1.0" encoding="utf-8"?-->
<!-- Generator: Adobe Illustrator 22.1.0, SVG Export Plug-In . SVG Version: 6.00 Build 0)  -->
<svg version="1.1" id="_x31__1_" xmlns="http://www.w3.org/2000/svg" xmlns:xlink="http://www.w3.org/1999/xlink" x="0px" y="0px" viewBox="0 0 800 184.011" style="width: 678px;" xml:space="preserve">
<style type="text/css">
	.st0{fill:#040000;}
</style>
<g>
	<path class="st0" d="M3.291,127.173c0,0-1.096,2.517-1.092,2.925c0.007,0.407,6.471,20.417,7.612,22.705
		c1.14,2.287,6.304,19.634,6.454,20.337c0.065,0.3,1.09,5.042,2.298,10.411h769.548c1.722-8.055,3.124-14.958,3.3-15.292
		c0.381-0.714,1.514-3.67,2.221-5.719c0.71-2.051-0.196-1.667,0.18-3.999c0.209-1.315-0.452-16.726-1.067-29.959
		c0.657-0.008,1.151-0.035,1.405-0.086c1.595-0.314,0.995-1.575-0.338-1.904c-0.18-0.045-0.589-0.087-1.169-0.131
		c-0.442-9.374-0.837-17.147-0.837-17.147s-0.335-1.095,1.47-2.669c1.804-1.578,4.371-11.561,4.696-13.704
		c0.327-2.143-2.273-3.491-2.273-3.491s-1.428,0.052-2.361-1.493c0.233-2.572-2.862-1.517-2.791-2.206
		c0.07-0.691,0.353-9.62,0.488-11.81c0.139-2.19-0.72-2.807-1.579-2.614c-0.854,0.194-2.232,1.674-2.655,4.199
		c-0.419,2.525-1.262,7.572-1.211,8.191c0.048,0.622-0.758,2.243-1.329,2.101c-0.572-0.143-2.44-4.04-2.657-5.206
		c-0.218-1.167-1.515-4.924-2.332-7.35c-0.814-2.424-2.864-2.322-3.263-1.108c-0.402,1.217,0.68,4.616,1.042,6.831
		c0.366,2.211,1.839,9.754,2.225,11.466c0.385,1.713-1.201,4.454-3.248,4.558c-2.046,0.1-1.573-2.6-3.511-5.807
		c-1.938-3.206-7.439-4.262-5.931-1.766c1.504,2.493,3.228,5.345,4.312,9.553c1.085,4.212,3.451,8.132,6.384,9.767l3.003,2.545
		c0,0-0.287,7.961-0.864,16.66c-0.88-0.022-1.419-0.036-1.419-0.036c-1.397,0.531-0.58,1.986,1.272,2.169
		c-0.553,7.73-1.333,15.574-2.352,18.592c-0.103,0.301-0.194,0.608-0.283,0.917c-3.026-4.501-7.546-9.998-8.053-12.026
		c-0.704-2.821-4.937-10.936-7.758-11.642c-0.151-0.89-1.549-3.093-3.119-5.346c-0.327-2.228-0.591-7.078-1.321-7.261
		c-0.154-0.039-0.502-0.062-0.976-0.078c-0.115-0.942-0.183-2.609,0.547-3.78c1.071-1.714,2.786-8.357,2.786-8.357
		s2.785-4.283,4.499-6.857c1.714-2.57,0.216-3.428-0.856-2.143c-1.071,1.286-2.785,2.572-3.643,3.859
		c-0.856,1.284-1.715,0.642-1.501-0.214c0.216-0.858-1.498-2.573-2.999-2.145c0-1.071-1.071-2.572-1.928-2.357
		c-0.858,0.214-2.787,1.072-2.787,1.072s0.428-8.357,0.428-10.928c0-2.572-1.928-2.787-2.57-0.429
		c-0.644,2.357-1.929,7.927-1.929,10.499c0,2.542-1.672,6.757-1.918,10.993c-2.629-2.836-6.423-6.808-6.7-7.921
		c-0.353-1.412-0.576-6.834-1.369-8.688c-0.792-1.851-2.514-3.703-3.837-5.424c-1.322-1.719-3.307-3.305-3.438-1.057
		c-1.719-1.985-2.115-2.912-2.648-3.705c-0.526-0.793-1.452-0.264-1.452,0.133c-0.398-1.588-1.193-2.512-1.853-2.91
		c-0.66-0.397-1.059,1.058-1.059,1.455c-1.057-1.322-2.115-0.263-1.851,1.059c-0.529,0.529-1.323,0.529-1.453,2.249
		c-0.135,1.721,0.263,6.35,0.263,8.334c0,1.983,0.528,6.878,1.057,9.788c0.17,0.927-0.04,2.34-0.436,3.961
		c-2.427-10.144-5.417-22.601-5.417-22.601s-1.729-3.461-1.922-4.037c-0.19-0.578-0.576-8.653-2.499-9.806
		c-0.576-1.923-1.923-1.923-1.923-1.923s-1.731-1.347-2.885-1.347c-1.345-1.345-2.306-2.114-2.306-2.114s-2.306-2.499-2.693-3.077
		c-0.384-0.576-2.114-2.499-2.883-3.844c-0.769-1.347-2.885-1.154-1.923,1.923c0.963,3.075,2.692,6.345,2.692,6.345l0.58,3.076
		c0,0-0.963-0.578-1.542-1.732c-0.576-1.153-1.921-0.768-1.73,1.732c0.194,2.499,1.154,5.767,1.923,7.307
		c0.769,1.538,6.73,5.189,6.73,5.189l1.922,2.308c0,0-1.536,23.263,0.194,27.111c1.731,3.844,1.731,5.576,1.731,5.576
		s-0.576,0-3.461-0.194c-2.714-0.181-9.806,5.575-9.806,5.575s-2.243,0.151-6.729-0.34c-0.913-5.699-1.66-9.787-1.66-9.787
		s0,0,0.699-0.524c0.699-0.525-0.173-4.369-0.173-4.369s-1.051-0.873-1.749-0.873c0,0-3.145-10.479-2.795-12.575
		c0.352-2.096,1.749-14.499,1.397-15.546c-0.35-1.047-1.747-5.589-2.269-6.464c-0.525-0.872-0.699-1.57-1.749-1.92
		c-1.047-0.35-3.143-1.573-3.143-1.573s-0.35-2.096-1.223-2.444c-0.872-0.35-4.367-1.749-4.367-1.749s-2.096-0.872-3.146-1.572
		c-1.047-0.698-2.617,0.175-5.238,0.35c-1.047-0.698-2.096-0.872-2.444,0.176c-0.351,1.045,0.173,1.745,1.046,2.269
		c0.874,0.525,2.62,2.095,2.62,2.095s1.399,4.019,2.096,7.161c0.699,3.145-0.35,6.987-1.571,6.987s-2.098-3.318-2.97-4.192
		c-0.348-2.096-2.444-4.54-4.367-4.365c-1.921,0.174-1.396,0.872-0.524,3.843c0.876,2.968,1.051,3.668,1.571,4.888
		c0.528,1.224,2.621,6.29,3.32,7.339c0.699,1.046,4.192,4.539,5.238,5.413c1.051,0.874,2.972,6.29,3.323,7.86
		c0.348,1.573,0.348,5.766,0.348,5.766s-0.525,0.346-0.874,1.045c-0.35,0.699-0.524,2.271,0,4.018
		c0.526,1.748,1.396,1.398,1.396,1.398s0.527,5.589-0.174,10.654c-0.289,2.117-0.399,7.639-0.453,13.474
		c-3.155-5.759-6.393-11.816-6.393-12.405c0-1.156-9.999-24.612-12.497-33.263c0-0.771,2.114-4.037-1.345-4.807
		c-1.538-1.538-0.771-11.92-0.771-11.92s1.154-15.381,1.538-18.843c0.383-3.459-2.499-0.193-3.075,2.308
		c-0.576,2.497-0.96,5.382-0.96,5.382l-1.541,2.885c0,0-2.114-1.344-3.268-0.962c-1.705-0.757-2.85-0.207-3.066,0.547
		c-0.194-0.62-0.527-1.01-0.888-1.01c-0.999,0-1.797,0.999-2.797,2.797c-0.999,1.796-1.599,3.396-2.196,4.594
		c-0.601,1.199-2.598,2.399-2.2,1.199c0.4-1.199,1.999-8.391,2.397-9.389c0.4-0.999,1.599-5.595,2.2-8.791
		c0.597-3.197-2.397-2.598-3.197-1.199c-0.799,1.398-1.798,4.597-1.997,5.594c-0.201,1-2.996,7.993-2.996,7.993
		s0.599-2.198,0.599-2.998c0-0.8,0.4-7.192,1.198-9.191c0.799-1.997,1.199-4.196,0-6.193c-1.198-1.997-2.998-1.397-3.394,0.401
		c-0.402,1.798-1.599,4.795-1.599,5.992c0,1.197-2.198,7.991-2.397,8.99c-0.201,1-1.399,5.194-1.598,4.396
		c-0.2-0.799-0.799-6.992-0.799-8.192c0-1.199-0.201-4.595-0.201-6.593c0-1.997-0.399-4.794-2.598-4.594
		c-2.197,0.201-2.795,3.396-2.795,5.393c0,1.997-0.402,6.792-0.201,7.792c0.201,0.997-0.598,8.589-0.598,8.589l-2.2,5.395
		c0,0-1.997-2.397-2.797-4.196c0-1.997-1.198-5.195-3.398-6.593c-2.197-1.398-3.593-0.599-2.994,0.599
		c0.597,1.199,1.396,4.595,1.597,5.594c0.2,1,1.597,5.795,2.196,6.993c0.6,1.199,1.598,6.193,1.598,7.991
		c0,1.798,2.8,11.785,2.8,11.785s0.997,3.997,1.397,4.997c0.4,0.998,0.201,7.591,0.4,8.788c0,0-1.997,0.2-1.797,1.201
		c0.044,0.228,0.403,2.567,0.933,6.054c-3.558-3.253-8.398-4.956-14.987-3.683c-0.825-0.115-2.122,0.139-3.618,0.754
		c2.747-21.954,5.795-46.1,5.795-46.1s-0.216-1.285,2.786-6.428c2.999-5.142,2.321-18.124,2.107-21.339
		c-0.216-3.214,0.643-17.143,1.071-22.285c0.428-5.143-2.785-4.714-4.072-4.286c-1.286,0.429-1.286,4.714-1.286,7.286
		s-0.643,4.286-2.572,6.858c-1.285-1.286-5.358-1.929-6.857,1.071c-0.643-3.215-4.072-3.215-6.001-1.714
		c-1.929,1.499-1.929,4.714-2.785,5.356c-0.858,0.643-2.786-11.571-2.998-12.642c-0.216-1.071-1.501-8.786-2.143-12
		c-0.643-3.215-3.214-3-4.929-1.286c-1.714,1.715,0.214,5.143-0.214,8.358c-0.429,3.214,1.499,21.857,1.286,26.357
		c-0.214,4.499,3.391,14.268,4.247,16.625c0.858,2.358,1.287,5.787,0,10.5c-0.878,3.212-5.866,18.505-8.956,27.916
		c-2.73-2.095-6.102-3.607-10.159-3.646c-0.129-0.765-0.259-1.619-0.365-2.6c-0.95-8.548-8.916-23.862-8.916-23.862
		s0.094-0.903,0.541-0.929c0.448-0.029-0.176-2.836-0.52-3.565c-0.346-0.725-0.681-1.305-0.681-1.305s-0.036-0.596,0.541-0.931
		c0.578-0.335,0.011-2.247-0.343-3.122c-0.353-0.877-1.287-1.418-1.287-1.418s0.058-8.689-0.065-10.629
		c-0.12-1.939-1.675-5.286-2.645-6.422c-0.97-1.136-3.589-2.322-3.794-3.207c-0.206-0.886-2.059-1.819-2.059-1.819
		s-0.754-2.497-1.408-3.355c-0.652-0.859-1.883-1.381-1.883-1.381l-0.401-1.622c0,0-1.238-5.464-1.603-6.489
		c-0.361-1.025-1.714-1.092-1.938,0.121c-0.223,1.213-0.178,6.751-0.131,7.496c0.046,0.745,0.064,5.834-0.57,7.672
		c-0.636,1.835,0.584,7-0.011,7.038c-0.596,0.036-0.98-1.287-1.454-1.706c-0.478-0.42-2.544-2.389-4.334-2.276
		c-1.79,0.11-2.209,0.586-2.014,1.324c0.194,0.735,3.197,3.244,3.681,3.813c0.486,0.567,2.182,3.756,3.318,5.183
		c1.136,1.427,6.367,6.041,6.367,6.041l0.903,2.489l-0.671,1.24c0,0,0.501,3.263,0.531,3.71c0.027,0.448,0.736-0.196,0.736-0.196
		l0.233,1.333l-0.869,0.503l1.157,4.121l0.754,0.102c0,0,3.474,22.094,3.883,23.863c0.033,0.129-0.544,2.077-1.426,4.94
		c-3.653,1.674-7.528,4.686-9.017,9.367c-1.478,4.644-3.658,9.053-5.306,12.054c-0.383-5.04-0.898-10.757-1.465-14.247
		c-1.286-7.931-1.658-14.638-1.507-16.154c0.215-2.153,1.24-4.724,1.24-4.724c0.808-1.615,0.539-5.385,1.349-8.079
		c0.807-2.693,1.884-4.31,0.537-4.579c-1.347-0.269-1.886,0.808-2.695,2.425c0,0-0.071-4.785-0.071-5.933
		c0-1.15-0.289-4.74-0.289-6.032c0-1.292,0-2.872-0.861-3.733c-0.861-0.862-1.868,0-1.868,1.436c0,1.435-0.287,7.321-0.287,8.04
		c0,0.718-0.143,3.302-0.285,3.733c-0.146,0.431-0.862,0-0.862-1.578c0-1.58-0.72-7.037-0.72-7.609c0-0.576-0.431-3.879-0.575-4.883
		c-0.144-1.006-0.429-2.297-1.578-2.155c-1.151,0.144-1.436,1.292-1.293,3.447c0.142,2.153,0.286,8.042,0.286,8.042
		s0.144,3.877,0,4.306c-0.144,0.431-0.429,1.58-1.005-0.86c-0.573-2.442-1.722-7.324-1.722-8.327c0-1.007-0.863-3.018-1.292-4.022
		c-0.432-1.006-2.44-0.43-2.01,1.724c0.431,2.152,0.861,5.456,1.292,7.753c0.433,2.298,0.862,5.026,0.575,5.601
		c-0.288,0.573-0.717,0.573-1.436-0.431c-0.719-1.007-2.585-3.159-2.728-3.879c-0.146-0.717-1.868-2.441-2.442-3.302
		c-0.573-0.861-2.297,0.144-1.292,2.011c1.007,1.868,2.585,5.17,3.016,6.32c0.43,1.148,1.722,3.444,1.866,4.019
		c0.125,0.5,2.104,7.327,3.563,10.309c-2.905-2.566-7.14-4.476-10.451-3.15c-9.299-2.495-14.536,5.735-17.108,12.817
		c1.857-8.731,2.799-26.651,4.365-29.61c1.749-3.304,6.216-10.294,6.993-11.849c0.777-1.553-0.194-3.883-1.942-5.244
		c-0.194-1.554-1.36-1.942-1.36-2.525c0-0.582,0.583-2.913-0.971-3.301c-1.554-0.389-0.389-2.721-0.389-2.721
		s3.496-9.322,4.079-10.293c0.582-0.973,1.942-4.275,1.748-5.829c-0.194-1.554-2.525-0.972-3.108,0.777
		c-0.583,1.749-3.108,6.41-3.108,6.41s-0.973,1.165-1.75,3.107c-0.777,1.943-2.912,5.441-2.912,5.441s-1.748,0.969-2.331,0.387
		c-0.582-0.581-1.165-7.186-1.165-7.186s-0.582-3.691-0.389-4.275c0.194-0.582-0.194-2.719-0.388-4.661
		c-0.194-1.942-3.302-0.777-3.108,0c0.194,0.777-0.194,4.856-0.194,7.187c0,2.331,0.388,6.798,0.388,7.965
		c0,1.164-0.388,6.797-0.388,6.797s0,0-0.971,0.388c-0.543,0.217-1.167,2.137-1.167,2.72c0,0.582,0.196,5.05,0.389,6.023
		c0,0,0.196,8.739,0,9.711c-0.192,0.971-1.748,10.683-2.331,12.042c-0.581,1.362-3.3,7.382-4.077,10.297
		c-0.524,1.965-1.847,7.915-3.067,12.589c-1.891-10.302-3.938-24.15-3.754-25.458c0.282-1.968,3.377-9.563,2.813-12.938
		c-0.561-3.375-2.249-8.156-1.968-9.845c0.123-0.73-0.045-1.254-0.335-1.788c0.433-0.424,0.821-0.846,1.151-1.25
		c1.806-2.222,3.023-2.946,6.335-4.579c3.309-1.633,1.599-4.239-0.055-3.423c-1.654,0.817-4.11,1.12-4.11,1.12l1.03-1.597
		l-0.835-2.797l-0.836-2.797c0,0,4.38-6.216,5.238-7.547c0.856-1.331,2.056-3.195,1.236-4.85c-0.815-1.655-2.889,0.397-3.48,1.9
		c-0.592,1.502-5.254,6.407-7.329,8.459c-0.797-0.514-2.091,0.911-2.872,1.539c-0.78,0.628-3.199,3.211-4.322,4.37
		c-1.121,1.161-1.293,1.426-1.865,4.07c-0.314,1.443-0.884,2.943-1.453,4.179c-0.291-0.696-0.476-1.162-0.476-1.162
		s-2.001-4.251-2.001-4.752c0-0.499-1.625-3.374-3.753-3.25c-2.123,0.126-1.75,2.876-0.874,4.751
		c0.874,1.876,1.625,4.627,2.001,5.376c0.373,0.751,0.874,3.626,0.874,3.626s-1.874,0.876-1.625,3.376
		c-1.498,1.625-1.75,4.001-1.75,4.001s-1.999,1.875-1.749,4.125c-1.169,2.23-0.172,2.836,0.923,4.499
		c-2.287,5.476-4.438,10.656-4.555,11.114c0,0-0.249,6.238,0.224,8.425c0.335,1.542,3.697,11.323,5.652,16.959
		c-0.748-1.985-1.256-3.338-1.256-3.338l-1.143-0.191l-1.619-4.192h-0.952l-0.858-1.808c0,0-2.094-5.62-2.285-6
		c-0.191-0.381-1.143-4.38-0.952-5.047c0.188-0.669,2.094-9.811,2.285-10.191c0.188-0.382,0.382-2.57,0.382-3.144
		c0-0.571-0.194-4.856-0.287-6.381c-0.096-1.525-1.238-1.619-1.811-0.858c-0.57,0.761-0.285,1.905-0.667,3.429
		c-0.665-2.001-1.427-1.619-2.001-1.143c-0.57,0.476-0.189,2.572-0.189,2.952c0,0.382-0.096,2.953-0.096,3.335
		c0,0.379-1.236,3.81-1.236,4.095c0,0.285-1.049,2.668-1.049,2.668s-0.094-0.573-0.191-1.62c-0.188-1.047-0.188-2.286-1.524-1.81
		c-1.331,0.478-1.046,2.666-1.046,2.666s-0.285,2.477-1.24,4.286c-0.95,1.81,0,4.477,0.573,5.429
		c0.57,0.952,2.381,4.286,2.667,4.953c0.091,0.214,0.382,1.012,0.706,2.011c-1.828-1.444-4.328-2.856-4.328-2.856
		s0.971,0.389,1.941-0.194c-0.97-0.196-6.409-5.246-10.487-5.634c-0.547-0.052-1.085-0.096-1.606-0.129
		c1.962-7.425,4.892-16.975,5.651-17.917c1.125-1.398,4.861-4.202,6.412-8.305c1.55-4.103,3.185-9.338,4.312-10.737
		c1.125-1.398,6.407-9.788,7.792-11.626c1.388-1.835-0.196-5.139-2.538-2.69c-2.344,2.45-5.37,8.042-6.591,7.611
		c-1.221-0.43,0.854-3.926,0.854-3.926s2.062-6.458,3.184-9.339c1.12-2.88,1.019-6.19-1.246-6.355
		c0.253-1.918-0.982-5.311-3.585-2.424c-2.6,2.886-4.056,8.82-5.703,11.092c-1.646,2.273-2.235,7.243-4.241,6.641
		c-2.007-0.602-0.97-2.347,0.672-6.102c1.638-3.755,3.362-8.643,3.7-10.213c0.345-1.569-2.114-5.393-4.012-1.203
		c-1.899,4.192-3.697,11.695-5.256,14.316c-1.553,2.619-4.219,11.085-6.047,11.181c-1.831,0.094-3.327-2.862-3.769-4.602
		c-0.444-1.741-2.375-4.96-4.813-4.338c-2.438,0.622-2.787,0.709-1.201,4.014c1.58,3.305,3.69,7.216,3.013,11.839
		c-0.678,4.623,2.559,7.135,2.911,8.527c0.354,1.392,1.413,4.09,1.413,4.09s-6.688,19.192-9.673,26.868
		c-2.472,2.075-5.514,5.165-6.05,9.462c-0.186,1.493-0.25,2.964-0.236,4.348c-1.317,2.981-2.629,6.014-3.589,8.315
		c-1.897-0.97-4.067-1.562-6.54-1.663c0.029-0.43,0.031-0.718,0.005-0.832c-0.308-1.226,1.227-5.521,3.374-9.819
		c2.148-4.296,2.57-40.077,2.34-41.802c-0.229-1.725-3.337-2.531-3.337-2.531s-1.842-14.035-1.842-14.955
		c0-0.923-0.46-7.71,0.692-11.852c1.15-4.143-0.23-10.009-0.23-10.355c0-0.345-0.462-5.177-0.462-5.752
		c0-0.577,0.117-2.302,0.576-4.372c0.46-2.071-0.46-3.683-1.38-3.568c-0.919,0.115-1.266,1.841-1.382,2.417
		c-0.114,0.576-0.497,2.263-0.497,2.263c-0.614,1.839-1.842,3.067-1.842,3.067s0,0-0.305-0.306
		c-0.308-0.922-1.228-0.614-2.762,0.614c-0.308-1.227-2.15-0.308-2.15-0.308l-0.92-2.147c0,0-1.303-1.228,0.92-4.602
		c1.23-1.865,0-4.909-1.839-2.454c-1.841,2.454-2.761,3.988-2.761,6.749c0,2.761,0,7.671-0.614,9.818
		c-0.919,1.842-0.614,6.749,0.614,8.59c1.226,1.842,2.761,4.603,2.761,8.592c0,3.989,0.614,16.569,0.614,16.569s0,1.227-1.534,1.533
		c-1.536,0.307-0.614,5.217-0.614,5.217s-1.228,12.577-1.228,14.111c0,1.331-0.922,16.937-2.366,21.483
		c-0.641-8.298-1.395-20.026-0.694-21.421c1.009-2.017-3.025-4.707-2.353-6.387c0.671-1.68-2.018-17.812-3.025-19.827
		c-1.009-2.015-4.705-13.443-4.705-16.467c0-3.025-1.007-5.376-2.016-4.369c-1.01,1.009-0.337,3.697-0.337,3.697
		s-2.688-4.369-2.688-7.393c0-3.025-2.69-3.697-4.369,0.336c-3.361,0.336-0.672,5.041,0,6.049c0.672,1.008,4.369,10.081,5.041,11.09
		c0.671,1.008-0.672,13.443,0,14.786c0.671,1.345-1.01,2.016-1.01,2.016s-1.678-3.023-3.359-5.04
		c-1.68-2.017-4.706-0.673-3.359,1.343c1.344,2.017,2.687,7.73,4.365,9.748c1.684,2.013,4.706,7.727,4.706,7.727
		s2.019,18.819,1.01,22.515c-0.171,0.624-0.378,1.885-0.608,3.548c-2.763-6.924-5.782-14.106-6.683-15.608
		c-1.75-2.913-9.324-23.892-9.324-24.474c0-0.583-0.777-2.135-0.582-3.495c0.194-1.361-3.304-11.46-3.884-13.208
		c-0.585-1.749-1.554-5.44-2.334-8.936c-0.776-3.495-2.718-7.77-3.301-9.907c-0.582-2.136-2.718-2.33-2.524-0.194
		c0.194,2.137,1.165,5.439,1.358,6.41c0.194,0.972,1.36,8.547,1.36,8.547s-1.165,1.361-1.942,0.584
		c-0.777-0.779-3.691-4.47-4.855-6.022c-1.165-1.554-3.692-5.439-4.663-6.605c-0.971-1.166-2.525,0.389-1.36,2.719
		c1.165,2.332,2.719,4.468,4.078,6.799c1.36,2.331,3.109,6.021,3.109,6.021s-1.164,1.555-2.33,2.527
		c-1.168,0.971-0.779,3.3-1.361,3.883c-0.583,0.582-1.554,1.166-1.165,3.303c0.388,2.137,6.216,9.516,7.187,11.46
		c0.971,1.941,6.603,14.566,7.188,16.51c0.139,0.469,0.875,2.492,1.918,5.361l-4.188-1.172c-1.721-2.584-9.472-3.445-9.472-3.445
		l0.862,2.584c-2.294-0.862-7.46-2.01-7.46-2.01l1.148,1.724c-4.018-0.289-5.453-0.289-5.453-0.289l0.862,2.297l-4.878,1.722
		l3.442,0.573c-2.583,2.009-6.313,6.313-6.313,6.313s3.483-0.497,4.192-1.029c-1.493,1.658-4.766,8.203-4.766,8.203
		s1.435,0,3.445-0.86c-0.384,1.53,0,4.079,0.295,5.609c-0.478,2.035-0.808,4.063-0.882,5.953c-0.183,4.775,1.825,9.549,3.801,12.943
		l-2.643-0.972c-0.326-0.094-0.79-0.248-1.335-0.442c-1.317-1.648-2.52-3.175-3.407-4.335c0.009-0.024,0.023-0.048,0.032-0.074
		c1.346-3.024,1.008-6.72-1.344-6.385c1.681-9.409-5.04-19.154-5.04-19.154s-0.005-0.011-0.016-0.027
		c0.279-2.793,0.484-5.434,0.511-7.349c0.089-6.646,2.428-26.791,2.428-26.791c3.407-1.767,3.49-5.498,3.929-8.249
		c0.439-2.748,0.283-5.955,1.397-8.062c1.116-2.107,2.091-3.654,0.797-4.686c-1.292-1.033-3.033,0.999-3.692,2.425
		c-0.89,1.923-1.691,5.419-3.627,5.06c-1.938-0.356-4.956-5.507-5.127-6.265c-0.172-0.756-0.098-3.953-0.098-3.953
		s2.892-3.038,1.276-3.734c0.025-1.065,0.92-1.798,0.92-1.798s1.973-1.24,1.926-2.026c-0.062-1.095-1.098-1.342-3.224-0.199
		c-2.752,1.479-3.274,1.932-3.274,1.932s0.024-1.067,0.496-2.496c0.471-1.433-1.326-2.352-2.051-0.863
		c-0.724,1.489-2.204,7.256-2.422,8.631c-0.221,1.374-0.44,6.858-0.065,9.689c0.08,0.604,0.228,1.538,0.409,2.645
		c-0.199,0.417-0.357,0.769-0.433,0.996c-0.271,0.813-1.622,5.406-2.163,5.136c-0.54-0.271,0.541-4.596,0.541-4.596
		s0.813-2.434,1.352-5.406c0.54-2.975-2.432-2.975-2.703-1.083c-0.27,1.892-2.435,5.679-2.435,5.679s-1.351,5.135-1.891,6.759
		c-0.541,1.622-1.083-1.624-1.083-1.624s0.813-4.053,1.083-7.028c0.269-2.975-2.976-2.975-2.976-1.081c0,1.89-1.35,5.406-1.35,6.487
		c0,1.081-1.083,4.868-1.083,5.949c0,1.08-0.541,5.677-0.541,5.677s-1.621-3.244-2.973-3.784c-1.353-0.541-2.433,0.811-0.812,3.516
		c1.623,2.703,0.812,6.487,1.623,8.109c0,0,1.353,3.514,1.083,4.597c-0.111,0.447-1.471,2.995-3.258,6.138
		c-3.498-4.354-5.285-8.587-5.285-8.587s-7.32-13.775-7.605-15.068c-0.286-1.289,0.574-4.303,1.005-4.734
		c0.431-0.43,2.009-6.889,1.865-9.326c-0.142-2.441-1.292-5.023-2.585-5.74c-1.29-0.719-2.15,0-2.15,0s0.43-1.58-1.006-2.728
		c-1.432-1.147-2.437-0.573-3.729-0.142c-1.293,0.431-5.882,3.3-7.463,3.731c-1.575,0.43-1.863,2.87-1.575,3.301
		c-1.435,1.148-1.581,3.587-1.004,4.446c-0.862,1.435-1.293,3.014-0.289,4.162c1.005,1.149,5.023,8.753,6.027,10.044
		c1.005,1.293,2.152,2.728,2.152,3.156c0,0.356,6.752,21.166,12.741,31.798c-2.56,4.509-4.079,11.196-6.225,13.346
		c-0.815,0.696-1.84,1.957-2.951,3.504c-0.326,0.048-0.656,0.107-0.991,0.169c-1.621-0.227-5.047,0.971-8.244,3.496
		c-0.623-1.357-1.293-2.675-1.965-3.746c-2.397-3.836-13.427-19.9-13.668-20.622c-0.238-0.719-3.357-9.35-3.116-11.988
		c0.241-2.637,0.241-4.795-0.48-6.232c-0.487-0.974-2.07-4.691-3.489-7.365l2.279-0.759c3.024,0.338,6.05-3.359,8.065-5.376
		c2.018-2.017,2.353-4.371,4.705-5.377c2.353-1.009,2.688-1.009,1.01-2.353c-1.681-1.344-3.362-2.014-6.384,1.01
		c-1.346,1.007-3.027,0.671-3.027,0.671s-1.007-2.351,0-4.367c1.008-2.017,0.336-5.377,0.336-5.377s0.672-4.706,1.681-6.049
		c1.01-1.345,3.697-7.731,2.688-9.074c1.682-2.688,2.018-6.049,0.336-6.721c-1.68-0.673-1.345,0.672-1.345,0.672
		s-2.688,4.368-3.696,5.713c-1.007,1.345-5.713,9.073-7.057,10.082c-1.346,1.007-7.059,9.074-9.409,15.122
		c-2.353,6.05-2.689,11.091-2.689,11.091l-6.387,23.187c0,0-0.159,0.823-0.397,2.051l-0.76,1.282l-0.308-1.47
		c0,0-1.555,2.231-2.954,3.6c-1.399,1.369-3.406,3.205-3.406,3.205l-0.549-1.878l-2.529,3.571l-0.154-2.331
		c0,0-0.806,0.693-2.19,2.273c-2.402,2.289-4.228,6.876-2.165,9.078c0,0-0.277,0.408-0.657,1.05
		c-0.035-0.141-0.071-0.286-0.107-0.429c0.04-0.436-0.044-0.819-0.283-1.11c-0.482-1.904-1.016-4.008-1.554-6.141
		c1.03-1.177,1.869-2.451,3.44-4.808c1.047-1.571,3.221-4.38,5.808-7.345c2.375-2.72,5.507-6.255,4.612-7.876
		c-0.895-1.619-4.411-0.905-6.581,1.784c-2.953,3.655-3.904,4.072-5.076,4.251c-4.367,0.67-4.46-3.351-4.152-6.436
		c0.31-3.085,1.067-11.357,1.685-14.131c0.618-2.778,1.063-6.96-1.096-7.268c-2.161-0.309-2.661,3.033-3.154,5.348
		c-0.181,0.843-0.451,2.166-0.759,3.642c-0.047-0.678-0.117-1.159-0.221-1.331c-0.594-0.994-0.893-1.987-0.893-1.987
		s-2.036-1.544-3.099-2.036c-0.158-1.92-0.029-5.376-2.642-5.376c-1.094,0-1.705,0.811-2.05,1.889
		c-0.67-0.881-1.326-1.641-1.942-1.826c-0.993-0.298-1.788-1.29-2.681-2.88c-0.895-1.588-1.887-3.574-2.582-4.964
		c-0.695-1.392-2.681-0.1-2.085,2.085c0.596,2.185,2.88,5.562,2.88,6.057c0,0.499,1.489,4.272,1.986,5.463
		c0.342,0.82,0.732,3.155,0.518,4.686c-0.446-1.826-0.978-3.685-1.652-5.205c-1.234-2.778-4.25-2.467-4.25,0
		c0,0.811,0.245,2.156,0.598,3.7c-0.712-1.185-1.755-2.635-2.795-3.082c-0.654-0.279-1.112-0.263-1.393-0.065
		c0.066-0.198,0.121-0.376,0.16-0.531c0.554-2.117-0.818-4.714-0.426-6.083c0.391-1.37,1.218-2.969,0.157-3.571
		c-1.061-0.598-2.545,1.512-2.31,3.713c-0.247,1.292-0.279,2.639-0.279,2.639s-1.319-1.795-1.518-2.52
		c-0.196-0.726-2.255-4.62-2.596-5.268c-0.344-0.651-2.708-3.718-3.188-4.626c-0.48-0.908-1.847-0.685-1.794,0.118
		c-0.96-1.816-1.654-2.777-2.432-3.199c-0.779-0.417-1.965,1.205-1.21,2.635c0.754,1.426,2.06,6.713,2.539,7.62
		c0.48,0.91-0.1,1.216-0.58,0.308c-0.48-0.909-1.288-3.139-1.903-4.306c-0.618-1.17-1.227-2.674-1.503-3.193
		c-0.272-0.52-2.196-0.997-1.68,1.387c0.515,2.383,1.444,5.545,1.924,6.455c0.48,0.91,1.828,4.511,1.177,4.691
		c-0.649,0.176-1.936-2.962-2.69-4.39c-0.755-1.428-1.585-2.648-2.074-3.221c-0.486-0.573-2.206-0.66-1.322,1.363
		c0.882,2.023,1.603,4.796,2.426,6.355c0.824,1.555,1.844,9.815,6.054,13.568c0.127,1.435,0.368,3.331,0.609,5.185
		c-2.924,2.119-6.398,4.255-8.277,5.21c-2.792,1.422-5.505,5.989-5.308,7.122c0.196,1.137-0.427,8.963-1.562,9.159
		c-1.045,0.184-0.804,4.118-0.406,6.387c-3.927,11.025-5.514,23.163-6.036,28.184c-0.19-0.981-0.405-1.975-0.652-2.974
		c-0.319-4.79-0.71-8.54-0.71-8.54l0.129-1.167c0,0,0.523-8.181,0.523-8.569c0-0.392-0.132-1.688-0.911-2.467
		c0.129-1.688,1.299-5.067,1.299-7.663c0-2.594-0.258-4.412-1.557-4.802c0-1.037-1.558-3.375-3.116-3.765
		c-0.388-1.559-2.208-2.077-3.504-1.947c-0.391-0.651-1.558-0.91-2.208-0.781c-0.65,0.13-4.154,1.3-4.154,1.3
		s-0.519,1.167-0.39,2.985c-0.779-1.297-2.855-0.647-2.855,0c0,0.649-0.13,4.935,0.129,7.272c0.259,2.334,4.413,5.193,5.321,6.361
		l0.782,0.91l-1.041,1.037c0,0-0.036,0.714-0.086,1.737c-2.03-0.854-4.347-1.299-6.995-1.206c-0.699-2.59-1.135-4.164-1.135-4.164
		s-0.77-4.109-0.513-5.137c0.257-1.026,0.513-6.164,1.027-9.246c0.515-3.082-1.284-9.762-1.796-11.816
		c-0.514-2.056,0.513-6.936,0.769-9.762c0.257-2.825-2.053-3.853-2.826-2.569c-0.77,1.286-1.284,5.908-1.284,5.908l-1.026,4.882
		c0,0-1.029-1.286-4.109-0.772c-1.543-0.769-5.909-0.513-5.909-0.513s-2.056,0.256-3.596-0.255c-1.543-0.515-2.056-1.286-2.57-2.315
		c-0.513-1.026-2.568-8.218-3.852-9.502c-1.284-1.285-3.34-1.03-2.312,4.108c1.028,5.138,2.056,10.02,2.568,11.046
		c0.514,1.029,1.286,8.99,1.286,8.99s-3.342,0.259-3.085,2.312c0.259,2.056,0.514,4.37,3.853,7.449
		c3.339,3.085,7.194,6.937,8.477,8.478c0,0,0.578,4.047,1.36,9.586c-2.204,2.596-3.882,5.963-4.092,10.058
		c-0.553,10.839-2.188,19.829-2.255,20.19c-2.763-1.114-4.724-1.64-4.724-1.64l-0.361-2.595c1.239,0.639,2.423,1.174,2.423,1.174
		s-1.457-4.704,0.074-8.223c1.531-3.519,1.924-7.021,1.924-7.021l1.648,2.383c0,0-0.809-1.651-0.071-5.681
		c0.739-4.037,0.111-12.337,0.111-12.337s1.772,1.9,3.036,1.402c-2.025-0.934-5.88-8.323-7.931-11.535
		c-2.052-3.211-5.567-7.935-8.918-6.536c0,0-2.241-0.894-7.179-0.525c-4.939,0.369-11.442,5.171-14.187,9.406
		c-2.746,4.234-2.612,8.082-3.344,8.922c-0.734,0.84-0.705,3.114-0.705,3.114s-0.032,0.918,1.136-0.015
		c-1.42,1.898-0.072,8.225-0.072,8.225l1.094-3.427c-1.094,3.427,0.583,8.085,4.685,14.51c0.198,0.307,0.407,0.607,0.621,0.899
		c-0.393,2.338-0.856,4.791-1.163,5.567c-2.491-0.202-3.648,1.268-3.648,1.268l-5.837-0.962c0,0-4.022-6.243-6.767-7.617
		c-2.741-1.376-9.133-12.995-9.133-12.995s-0.7-3.28,0.024-5.636c0.724-2.357,3.353-6.101,4.313-11.939
		c0.962-5.837,3.841-12.246,3.841-12.246l1.176,0.159c0,0,1.34-1.755,1.193-2.457c-0.068-0.314-0.715-0.665-0.715-0.665l1.331-2.569
		c0,0,2.136-0.699,3.56-2.064c1.422-1.365,2.444-2.316,3.136-3.281c0.695-0.962,0.639-1.606-0.103-2.018
		c-0.74-0.413-1.321-0.453-1.321-0.453s1.79-3.482,2.298-4.162c0.507-0.68,2.764-3.119,3.438-4.163
		c0.679-1.039,1.297-1.58,1.929-2.451c0.629-0.868,1.563-2.617,0.571-3.059c-0.992-0.442-1.975,1.073-2.362,1.564
		c-0.383,0.489-1.942,2.373-2.3,2.612c-0.357,0.24-2.517,2.74-2.702,3.024c-0.186,0.285-1.025,0.546-1.512,0.568
		c-0.486,0.021-1.109,0.154-1.109,0.154s-0.25-1.171-1.237-1.205c-0.986-0.035-1.984,0.259-1.984,0.259
		c-1.022-0.191-0.482-2.265-0.474-2.595c0.014-0.328,0.527-1.743,0.578-2.653c0.051-0.91-0.638-1.088-0.638-1.088
		s-0.507-0.463-0.878,0.103c-0.368,0.57-0.992,3.396-1.219,3.853c-0.23,0.456-1.125,2.771-1.522,3.59
		c-0.397,0.819-3.733,5.857-3.378,7.902c-1.015,1.36-2.246,3.254-2.246,3.254s-0.58-0.04-0.763,0.244
		c-0.186,0.283-1.561,3.025-1.199,3.194c0.364,0.166,0.368,0.574,0.368,0.574s-5.512,11.297-7.199,14.105
		c-1.688,2.809-6.793,17.933-6.404,20.138C2.407,124.175,3.291,127.173,3.291,127.173z M725.549,99.597
		c0.533-0.793,2.912-3.703,3.439-5.555c1.325,4.497,3.704,4.762,3.704,4.762s8.467,14.021,8.733,14.816
		c0.263,0.791,4.233,9.526,4.233,9.526s-1.509,0.834-3.49,2.224c-2.61-8.592-7.754-16.697-17.909-16.715
		C724.802,103.908,725.323,99.939,725.549,99.597z M664.32,157.04c-0.165,0.377-0.325,0.763-0.478,1.151
		c-0.269-0.229-0.534-0.409-0.799-0.534c-6.209-2.886-7.902-6.253-7.902-6.253s0.563-2.886,0.563-6.251
		c0-1.064,0-5.522-0.777-10.976C658.848,144.24,663.463,155.865,664.32,157.04z M632.124,74.741c0.568-1.026,1.402-3.81,2.344-6.494
		c0.437,0.35,0.437,0.352,0.437,0.352s-0.383,6.538,3.847,9.806c0,0.383,0.961,1.921,0.961,1.921l0.576,0.963l-0.962,0.769
		c0,0,0,3.27,0.385,3.27c0.385,0,1.152,0.191,1.152,0.191s2.731,18.116,5.897,28.133c-3.628-3.823-8.725-5.96-15.892-4.574
		c-0.369-0.05-0.831-0.028-1.363,0.064c-0.679-3.364-1.133-5.604-1.179-5.832c-0.199-0.998-1.998-0.998-1.998-0.998
		s-1.599-8.59-2.196-11.387C623.533,88.126,631.123,76.539,632.124,74.741z M525.823,116.001c0,0-0.236,0.639-0.542,1.667
		l-0.978,1.559c-0.043-0.662-0.092-1.368-0.144-2.106C525.239,116.587,525.823,116.001,525.823,116.001z M480.243,118.432
		c-0.47-0.154-1.996-0.537-3.691-1.108l4.327-4.903l-1.581,5.698C479.298,118.118,479.887,118.314,480.243,118.432z
		 M475.497,112.628c0.777-0.389,1.166-1.943,1.554-2.917c0.336-0.843,1.412-6.091,3.215-12.044c-0.143,0.66-0.255,1.261-0.335,1.776
		c-0.95,6.014-3.799,13.294-3.799,13.294s2.214-2.532,3.166-4.43c0,1.849-2.206,7.222-2.933,8.953
		c-0.675-0.232-1.369-0.494-2.033-0.782C474.819,114.281,475.243,112.754,475.497,112.628z M455.012,50.688
		c0.592-0.062,1.329-0.351,2.122-0.785c0.393,1.206,0.636,2.494-0.11,2.744c-0.487,0.162-1.394-0.259-2.355-0.962
		C454.797,51.19,454.911,50.845,455.012,50.688z M431.794,108.934c0.154-0.191,0.291-0.555,0.413-1.029l1.083,3.571
		c-0.039,0.026-0.078,0.052-0.117,0.074c-0.654-0.2-1.573,0.107-1.573,0.107S431.017,109.908,431.794,108.934z M428.921,92.448
		c0.076,0.263,0.147,0.524,0.215,0.781c-0.159-0.262-0.255-0.416-0.255-0.416S428.835,92.634,428.921,92.448z M342.108,121.457
		c0.304,0.854,0.62,1.738,0.949,2.64l-1.388,0.732l0.523-2.263C342.19,122.566,342.163,122.124,342.108,121.457z M281.058,50.519
		c0,0,0.135-0.471,0.353-1.232c0.339,2.027,0.643,3.883,0.791,4.971c-0.291,0.265-0.582,0.47-0.876,0.586
		C279.976,55.385,281.058,50.519,281.058,50.519z M210.324,69.202c0.281,0.874,0.492,1.502,0.492,1.502s-0.241,2.157-1.201,2.637
		c-0.049,0.024-0.094,0.037-0.141,0.04L210.324,69.202z M212.253,90.604c0.718,1.679,11.508,28.293,12.228,29.971l-1.208,6.523
		c-4.632-4.227-10.409-9.518-12.712-11.797c0.209-1.805,0.353-3.378,0.353-3.378s0.27-2.358,1.446-7.118
		c0.996-4.042-2.938-10.676-4.143-12.58c-0.125-3.999-0.214-7.529-0.259-9.513C208.932,83.722,211.538,88.937,212.253,90.604z
		 M178.042,123.283c0.438,0.955,1.072,1.876,1.458,2.633c0.734,1.443,1.567,1.175,1.851,2.22c0.281,1.044,1.423,2.245,1.678,2.868
		c0.254,0.62,0.464,3.799,0.464,3.799l-2.021,4.816c0,0-1.052-0.648-2.438-1.431c-0.036-2.624-0.018-5.2-0.282-7.166
		c-0.147-1.109-0.525-3.506-1.011-6.511L178.042,123.283z M146.956,78.938c-0.111-0.355-0.393-1.548-0.727-3.024
		c0.568,0.766,1.149,1.557,1.705,2.336L146.956,78.938z M159.278,106.732l-0.335,0.048c0,0,0.233-0.327,0.366-0.667
		C159.298,106.316,159.289,106.523,159.278,106.732z M155.92,95.544c1.853,3.085,3.703,4.626,3.703,4.626s-0.129,2.101-0.285,5.325
		c-0.065-0.094-0.19-0.155-0.395-0.155c-1.852,0.411-2.263,4.318-0.824,4.936c0.168,0.073,0.518,0.1,1.002,0.091
		c-0.048,1.262-0.098,2.593-0.14,3.963c-1.749-3.226-2.941-5.41-2.941-5.41c0.137-1.267-0.86-9.809-2.147-12.946
		c-0.486-1.191-1.563-3.849-2.727-6.714c0.095-0.664,0.225-1.228,0.437-1.609c0.17-0.307,0.282-0.639,0.339-0.958
		C152.87,89.51,154.562,93.276,155.92,95.544z M147.532,60.717c0.028,0.382,0.172,0.812,0.415,1.218
		c0.795,1.324,2.121,4.239,2.649,5.825c0.468,1.398,1.752,4.641,4.219,6.481c0.524,2.755,0.623,4.529-1.361,2.791
		c-0.338-0.295-0.686-0.635-1.041-1.007l-0.113-0.162c-0.054-0.075-0.123-0.131-0.202-0.172c-2.192-2.371-4.674-5.829-6.638-7.559
		c-0.275-0.241-0.545-0.419-0.806-0.549C145.105,66.334,146.664,62.975,147.532,60.717z M136.079,80.008
		c0.078,0.712,0.121,1.22,0.101,1.417c-0.005,0.028-0.003,0.072,0.001,0.135c-1.467,0.429-2.769,0.949-2.769,0.949L136.079,80.008z
		 M129.869,108.501c0,0,0.793-2.828,1.414-3.285c0.623-0.46-0.863-1.604-0.81-1.964c5.433-3.053,6.085-7.376,6.085-7.376
		s0.616-0.397,1.397-0.934c0.661,1.964,1.328,3.884,1.328,4.413c0,0.45-1.35,4.564-2.948,9.312c-1.518-0.056-3.152,0.072-4.911,0.41
		c-0.651-0.091-1.594,0.05-2.694,0.411c-0.032-0.278-0.051-0.427-0.051-0.427L129.869,108.501z" style="fill: rgb(255, 185, 95);"></path>
</g>
</svg>
