<?xml version="1.0" encoding="iso-8859-1"?>
<!-- Generator: Adobe Illustrator 18.0.0, SVG Export Plug-In . SVG Version: 6.00 Build 0)  -->
<!DOCTYPE svg PUBLIC "-//W3C//DTD SVG 1.1//EN" "http://www.w3.org/Graphics/SVG/1.1/DTD/svg11.dtd">
<svg version="1.1" id="_x34_" xmlns="http://www.w3.org/2000/svg" xmlns:xlink="http://www.w3.org/1999/xlink" x="0px" y="0px"
	 viewBox="0 0 512 512" style="enable-background:new 0 0 512 512;" xml:space="preserve">
<g>
	<path style="fill:#D1D1D1;" d="M511.416,95.279c0,3.502-2.48,6.493-5.836,7.223c-0.438,0.146-0.802,0.218-1.24,0.218H7.66
		c-0.438,0-0.802-0.072-1.24-0.218c-3.356-0.729-5.836-3.721-5.836-7.223l0.146-0.729l6.712-25.826l1.386-5.326l8.536-33.122
		l5.909-22.835C23.273,3.356,26.629,0,30.714,0h450.571c4.086,0,7.442,3.356,7.442,7.441l3.721,14.446l2.189,8.389l5.472,21.084
		l3.137,12.038l1.313,5.326h0.073l6.639,25.826L511.416,95.279z"/>
	<path style="opacity:0.06;fill:#191919;" d="M511.271,94.55c-0.657,3.94-2.918,7.076-5.691,7.952
		c-0.438,0.146-0.802,0.218-1.24,0.218H7.66c-0.438,0-0.802-0.072-1.24-0.218c-2.772-0.875-5.034-4.012-5.691-7.952l6.712-25.826
		l1.386-5.326l8.536-33.122h477.273l5.472,21.084l3.137,12.038l1.313,5.326h0.073L511.271,94.55z"/>
	<path style="fill:#EAEAEA;" d="M512,70.912v183.847c0,4.159-3.356,7.515-7.442,7.515H7.442c-4.085,0-7.442-3.356-7.442-7.515
		V70.912c0-4.159,3.356-7.515,7.442-7.515h497.117C508.644,63.398,512,66.753,512,70.912z"/>
	<path style="opacity:0.2;fill:#FFFFFF;" d="M512,70.912v5.253c0-4.086-3.283-7.369-7.368-7.442H7.442
		C3.356,68.723,0,72.079,0,76.165v-5.253c0-4.159,3.356-7.515,7.442-7.515h497.117C508.644,63.398,512,66.753,512,70.912z"/>
	<g>
		<g>
			<path style="fill:#89857E;" d="M21.745,94.214L21.745,94.214c-5.323,0-9.678-4.355-9.678-9.678l0,0
				c0-5.323,4.355-9.678,9.678-9.678l0,0c5.323,0,9.678,4.355,9.678,9.678l0,0C31.423,89.859,27.068,94.214,21.745,94.214z"/>
			<path style="fill:#89857E;" d="M21.745,252.144L21.745,252.144c-5.323,0-9.678-4.355-9.678-9.678l0,0
				c0-5.323,4.355-9.678,9.678-9.678l0,0c5.323,0,9.678,4.355,9.678,9.678l0,0C31.423,247.789,27.068,252.144,21.745,252.144z"/>
		</g>
		<g>
			<path style="fill:#89857E;" d="M490.256,94.214L490.256,94.214c-5.323,0-9.678-4.355-9.678-9.678l0,0
				c0-5.323,4.355-9.678,9.678-9.678h0c5.323,0,9.678,4.355,9.678,9.678l0,0C499.934,89.859,495.579,94.214,490.256,94.214z"/>
			<path style="fill:#89857E;" d="M490.256,252.144L490.256,252.144c-5.323,0-9.678-4.355-9.678-9.678l0,0
				c0-5.323,4.355-9.678,9.678-9.678h0c5.323,0,9.678,4.355,9.678,9.678l0,0C499.934,247.789,495.579,252.144,490.256,252.144z"/>
		</g>
	</g>
	<g>
		<rect x="48.653" y="77.791" style="fill:#D1D1D1;" width="11.731" height="174.354"/>
		<rect x="88.949" y="77.791" style="fill:#D1D1D1;" width="11.731" height="174.354"/>
		<rect x="129.246" y="77.791" style="fill:#D1D1D1;" width="11.731" height="174.354"/>
		<rect x="169.542" y="77.791" style="fill:#D1D1D1;" width="11.731" height="174.354"/>
		<rect x="209.838" y="77.791" style="fill:#D1D1D1;" width="11.731" height="174.354"/>
		<rect x="250.135" y="77.791" style="fill:#D1D1D1;" width="11.731" height="174.354"/>
		<rect x="290.431" y="77.791" style="fill:#D1D1D1;" width="11.731" height="174.354"/>
		<rect x="330.727" y="77.791" style="fill:#D1D1D1;" width="11.731" height="174.354"/>
		<rect x="371.024" y="77.791" style="fill:#D1D1D1;" width="11.731" height="174.354"/>
		<rect x="411.32" y="77.791" style="fill:#D1D1D1;" width="11.731" height="174.354"/>
		<rect x="451.616" y="77.791" style="fill:#D1D1D1;" width="11.731" height="174.354"/>
	</g>
	<rect x="451.616" y="77.791" style="opacity:0.1;fill:#191919;" width="3.006" height="174.354"/>
	<rect x="411.32" y="77.791" style="opacity:0.1;fill:#191919;" width="3.006" height="174.354"/>
	<rect x="371.024" y="77.791" style="opacity:0.1;fill:#191919;" width="3.006" height="174.354"/>
	<rect x="330.727" y="77.791" style="opacity:0.1;fill:#191919;" width="3.006" height="174.354"/>
	<rect x="290.431" y="77.791" style="opacity:0.1;fill:#191919;" width="3.006" height="174.354"/>
	<rect x="250.135" y="77.791" style="opacity:0.1;fill:#191919;" width="3.006" height="174.354"/>
	<rect x="209.838" y="77.791" style="opacity:0.1;fill:#191919;" width="3.006" height="174.354"/>
	<rect x="169.542" y="77.791" style="opacity:0.1;fill:#191919;" width="3.006" height="174.354"/>
	<rect x="129.246" y="77.791" style="opacity:0.1;fill:#191919;" width="3.006" height="174.354"/>
	<rect x="88.949" y="77.791" style="opacity:0.1;fill:#191919;" width="3.006" height="174.354"/>
	<rect x="48.653" y="77.791" style="opacity:0.1;fill:#191919;" width="3.006" height="174.354"/>
	<circle style="fill:#EAEAEA;" cx="256" cy="164.061" r="41.667"/>
	<path style="opacity:0.2;fill:#FFFFFF;" d="M256,131.904c19.262,0,34.933,15.671,34.933,34.933
		c0,19.262-15.671,34.933-34.933,34.933c-19.262,0-34.933-15.671-34.933-34.933C221.067,147.575,236.738,131.904,256,131.904z"/>
	<path style="fill:#7AC9D2;" d="M256,127.908c19.262,0,34.933,15.671,34.933,34.933c0,19.262-15.671,34.933-34.933,34.933
		c-19.262,0-34.933-15.671-34.933-34.933C221.067,143.579,236.738,127.908,256,127.908z"/>
	<g style="opacity:0.2;">
		<path style="fill:#FFFFFF;" d="M229.29,168.141c-1.472,0-2.754-1.087-2.957-2.587c-0.176-1.305-0.266-2.639-0.266-3.963
			c0-16.37,13.318-29.687,29.688-29.687c9.686,0,18.794,4.763,24.362,12.742c0.944,1.353,0.613,3.215-0.74,4.16
			c-1.354,0.944-3.215,0.613-4.16-0.74c-4.452-6.378-11.727-10.186-19.463-10.186c-13.075,0-23.713,10.638-23.713,23.713
			c0,1.057,0.071,2.12,0.212,3.162c0.221,1.635-0.925,3.14-2.56,3.361C229.558,168.132,229.423,168.141,229.29,168.141z"/>
	</g>
	<circle style="opacity:0.1;fill:#FFFFFF;" cx="270.097" cy="177.395" r="10.558"/>
	<circle style="opacity:0.1;fill:#FFFFFF;" cx="266.668" cy="172.776" r="7.808"/>
</g>
</svg>
