<?xml version="1.0" encoding="iso-8859-1"?>
<!-- Generator: Adobe Illustrator 18.0.0, SVG Export Plug-In . SVG Version: 6.00 Build 0)  -->
<!DOCTYPE svg PUBLIC "-//W3C//DTD SVG 1.1//EN" "http://www.w3.org/Graphics/SVG/1.1/DTD/svg11.dtd">
<svg version="1.1" id="_x30_" xmlns="http://www.w3.org/2000/svg" xmlns:xlink="http://www.w3.org/1999/xlink" x="0px" y="0px"
	 viewBox="0 0 512 512" style="enable-background:new 0 0 512 512;" xml:space="preserve">
<g>
	<rect style="opacity:0;fill:#FFFFFF;" width="512" height="512"/>
	<path style="opacity:0.15;fill:#040000;" d="M512,282.88V512H287.334L169.933,394.598l-0.717-0.716l-25.6-25.6l-7.936-7.936
		l-0.922-0.922l-16.538-16.538l-0.512-0.512c-2.714-4.301-5.222-8.755-7.526-13.363l0.154,0.051
		c-0.051-0.103-0.103-0.205-0.154-0.307c-3.174-6.4-5.939-13.005-8.294-19.814l77.466-77.466l76.032-75.981l1.229-1.229
		l52.326-52.326l0.256-0.307c1.177,0.41,2.355,0.819,3.482,1.229l-0.154,0.154l-0.205,0.153c0.102,0,0.256,0.051,0.358,0.103
		c17.049,6.349,32.717,15.411,46.489,26.777l11.315,11.315l4.608,4.608c0.205,0.154,0.307,0.307,0.461,0.461l6.349,6.349
		c0,0,0.051,0,0.051,0.051L512,282.88z"/>
	<g>
		<g>
			<path style="fill:#FFFFFF;" d="M418.867,256.051c0,25.907-6.042,50.432-16.845,72.192c-0.051,0.102-0.102,0.256-0.205,0.358
				c-3.993,8.038-8.704,15.769-13.926,23.04c-0.051,0-0.051,0.051-0.103,0.102c-0.205,0.256-0.41,0.563-0.614,0.871
				c-0.051,0.051-0.051,0.051-0.102,0.102c-2.048,2.816-4.25,5.581-6.502,8.243c-0.051,0.051-0.103,0.154-0.154,0.205
				c-0.205,0.256-0.41,0.461-0.666,0.768c-0.051,0.051-0.103,0.103-0.153,0.154c-6.093,7.117-12.8,13.721-20.071,19.661
				c-1.639,1.331-3.328,2.663-5.018,3.943c-0.973,0.768-1.894,1.485-2.867,2.15c-1.383,1.075-2.816,2.099-4.301,3.072
				c-1.843,1.28-3.737,2.509-5.632,3.686c-1.843,1.127-3.686,2.202-5.53,3.277h-0.051c-23.501,13.312-50.637,20.941-79.513,21.043
				h-1.229c-29.85-0.102-57.805-8.243-81.818-22.374h-0.051c-1.434-0.87-2.867-1.741-4.301-2.662
				c-10.342-6.503-19.866-14.131-28.467-22.733c-2.867-2.867-5.632-5.888-8.243-8.96c-0.103-0.051-0.154-0.154-0.205-0.205
				c-0.256-0.256-0.461-0.512-0.666-0.768c-0.051-0.051-0.102-0.102-0.153-0.154c-2.304-2.713-4.506-5.478-6.605-8.346
				c-0.256-0.358-0.461-0.666-0.717-1.024c-2.099-2.867-4.096-5.786-5.939-8.806c-2.867-4.454-5.478-9.063-7.885-13.824
				c-0.051-0.103-0.103-0.205-0.154-0.307c-3.174-6.4-5.939-13.005-8.294-19.814c-5.683-16.589-8.806-34.406-8.806-52.89
				c0-6.195,0.358-12.288,1.024-18.279c1.843-16.537,6.144-32.307,12.595-46.95v-0.102l0.461-1.024
				c0.051-0.051,0.051-0.051,0.051-0.103c7.731-17.357,18.483-33.024,31.437-46.541c0.153-0.153,0.307-0.358,0.461-0.512
				c16.743-17.203,37.223-30.72,60.16-39.27c0.102-0.051,0.256-0.103,0.358-0.154c17.408-6.349,36.199-9.882,55.757-9.984h1.229
				c18.33,0.103,35.943,3.174,52.326,8.807c1.127,0.41,2.253,0.768,3.379,1.229c0.102,0,0.256,0.051,0.358,0.103
				c17.049,6.349,32.717,15.411,46.489,26.777c5.632,4.557,10.906,9.523,15.872,14.848c0.051,0.051,0.102,0.154,0.153,0.205
				c1.178,1.229,2.304,2.509,3.431,3.789c1.075,1.229,2.202,2.56,3.277,3.891c0,0,0.051,0,0.051,0.051
				c2.048,2.458,4.045,5.018,5.939,7.629c0.973,1.331,1.946,2.714,2.918,4.147c0.87,1.229,1.689,2.56,2.509,3.84
				c0.256,0.307,0.409,0.614,0.614,0.922c0.768,1.229,1.485,2.457,2.253,3.686c0.922,1.536,1.792,3.072,2.662,4.659
				c2.099,3.891,4.096,7.885,5.939,11.981c0.051,0.051,0.102,0.102,0.102,0.153c0.153,0.307,0.307,0.666,0.409,0.973
				c0.717,1.587,1.382,3.226,2.048,4.864c0.051,0.051,0.051,0.102,0.102,0.205c0.614,1.587,1.178,3.174,1.792,4.813
				c0.153,0.358,0.256,0.768,0.41,1.178c3.891,11.008,6.605,22.63,8.038,34.611c0,0.051,0,0.051,0,0.103
				C418.457,242.944,418.867,249.447,418.867,256.051z"/>
			<path style="fill:#A4A4A3;" d="M256.598,93.434V299.6c-0.202,0.004-0.41,0.004-0.612,0.004c-0.202,0-0.41,0-0.612-0.004V93.434
				H256.598z"/>
			<path style="fill:#A4A4A3;" d="M295.213,298.405l-0.386,1.193l-26.99-15.585l-1.224-0.704l-10.016-5.782l-0.508-0.294
				l-0.716-0.416l-0.508-0.294l-55.656-32.129l-53.318-30.783l-39.166-22.615l0.453-1.003c0.018-0.043,0.037-0.079,0.055-0.122
				l40.01,23.098l52.217,30.147l55.913,32.282l0.722,0.416l0.502,0.294l0.722,0.416l10.524,6.076l1.224,0.71L295.213,298.405z"/>
			<path style="fill:#A4A4A3;" d="M307.854,259.502l-0.569,1.738l-38.218,22.07l-1.23,0.704l-10.518,6.076l-0.722,0.416
				l-0.502,0.288l-0.722,0.416l-33.567,19.384l-54.536,31.487l-34.993,20.204c-0.269-0.318-0.538-0.63-0.808-0.948l35.648-20.577
				l53.386-30.826l34.369-19.843l0.502-0.288l0.722-0.416l0.502-0.294l10.016-5.782l1.23-0.71L307.854,259.502z"/>
			<path style="fill:#A4A4A3;" d="M380.569,361.25c-0.263,0.318-0.532,0.636-0.802,0.948l-37.073-21.403l-52.309-30.202
				l-33.788-19.507l-0.502-0.294l-0.722-0.416l-0.502-0.288l-10.524-6.076l-1.224-0.71l-38.493-22.223l-0.563-1.738l40.279,23.257
				l1.224,0.71l9.802,5.654l0.722,0.422l0.502,0.288l0.722,0.416l34.185,19.739l52.701,30.428L380.569,361.25z"/>
			<path style="fill:#A4A4A3;" d="M405.289,191.095l-37.961,21.917l-54.616,31.53l-55.393,31.983l-0.722,0.416l-0.508,0.294
				l-0.716,0.416l-9.802,5.66l-1.224,0.704l-27.167,15.688l-0.392-1.193l26.335-15.205l1.224-0.704l10.518-6.076l0.508-0.294
				l0.722-0.416l0.502-0.288l56.011-32.338l53.943-31.144l38.236-22.076C404.959,190.342,405.124,190.721,405.289,191.095z"/>
			<polygon style="fill:#FDFEFE;" points="218.939,313.041 196.047,242.573 255.986,199.023 315.927,242.573 293.033,313.041 			"/>
			<path style="fill:#525151;" d="M312.678,102.861l-0.154,0.154l-0.205,0.153l-16.845,12.237l-38.861,28.211L256,144.077
				l-0.614-0.461l-55.757-40.499l-0.358-0.256c17.51-6.451,36.403-10.035,56.115-10.138h1.229
				c18.432,0.102,36.096,3.226,52.583,8.909C310.374,102.042,311.552,102.451,312.678,102.861z"/>
			<path style="fill:#525151;" d="M417.825,236.662l-50.382-23.765l-0.85-0.404l0.073-0.563l8.511-66.853
				c12.231,13.094,22.321,28.201,29.725,44.777c0.171,0.373,0.337,0.753,0.502,1.126c1.42,3.237,2.729,6.535,3.934,9.882
				c0.147,0.385,0.288,0.777,0.422,1.169C413.658,213.075,416.393,224.67,417.825,236.662z"/>
			<path style="fill:#525151;" d="M147.458,212.608l-0.771,0.361l-1.352,0.643l-51.777,24.426
				c1.842-16.508,6.155-32.276,12.562-46.924l0.049-0.116l0.453-1.003c0.018-0.043,0.037-0.079,0.055-0.122
				c7.838-17.536,18.693-33.427,31.897-47.022L147.458,212.608z"/>
			<path style="fill:#525151;" d="M173.568,396.851c-1.229-0.716-2.458-1.485-3.635-2.253c-10.65-6.605-20.531-14.438-29.338-23.296
				c-2.867-2.867-5.632-5.888-8.294-9.011c-0.307-0.307-0.563-0.614-0.819-0.973c-2.304-2.662-4.506-5.478-6.605-8.346
				c-0.256-0.307-0.461-0.666-0.717-0.973c-2.304-3.123-4.454-6.349-6.451-9.625c-2.714-4.301-5.222-8.755-7.526-13.363l0.154,0.051
				l0.205,0.051l56.576,11.418v0.205l0.153,1.331l0.256,2.304l5.991,52.173L173.568,396.851z"/>
			<path style="fill:#525151;" d="M402.022,328.534c-4.063,8.205-8.799,16.025-14.134,23.374c-0.025,0.037-0.055,0.073-0.08,0.11
				c-0.214,0.294-0.434,0.593-0.648,0.887c-0.031,0.037-0.055,0.067-0.08,0.104c-2.08,2.821-4.253,5.568-6.51,8.242
				c-0.263,0.318-0.532,0.636-0.802,0.948c-12.305,14.373-27.075,26.58-43.657,35.966l6.584-57.369l0.025-0.239l1.487-0.3
				l55.087-11.167l1.224-0.251L402.022,328.534z"/>
			<polygon style="fill:#525151;" points="313.049,243.508 295.213,298.405 294.828,299.598 291.254,310.593 220.718,310.593 
				199.21,244.395 198.923,243.508 199.461,243.116 255.986,202.047 			"/>
		</g>
		<path style="opacity:0.1;fill:#171716;" d="M409.105,202.241c-0.135-0.392-0.275-0.783-0.422-1.169
			c-1.205-3.347-2.515-6.645-3.934-9.882c-0.165-0.373-0.33-0.753-0.502-1.126c-7.404-16.576-17.493-31.683-29.725-44.777
			c-1.279-1.37-2.588-2.71-3.913-4.036L140.273,371.589c9.764,9.765,20.757,18.301,32.735,25.344
			c24.016,14.122,51.972,22.254,81.826,22.364c0.202,0.006,0.41,0.006,0.612,0.006c0.202,0,0.41,0,0.612-0.006
			c28.899-0.104,56.017-7.734,79.513-21.036c16.582-9.386,31.352-21.593,43.657-35.966c0.269-0.312,0.538-0.63,0.802-0.949
			c2.258-2.674,4.43-5.421,6.51-8.242c0.025-0.037,0.049-0.067,0.08-0.104c0.214-0.294,0.434-0.594,0.648-0.887
			c0.025-0.037,0.055-0.073,0.08-0.11c5.335-7.349,10.071-15.168,14.134-23.374c10.787-21.764,16.851-46.276,16.851-72.213
			c0-6.614-0.398-13.137-1.162-19.543C415.737,224.881,413.002,213.286,409.105,202.241z"/>
	</g>
</g>
</svg>
